<svg version="1.1" xmlns="http://www.w3.org/2000/svg" style="display: block;" viewBox="0 0 2048 2048" width="1024" height="1024" preserveAspectRatio="none">
<path transform="translate(0,0)" fill="white" stroke="" stroke-width="20" d="M 900.44 568.427 C 924.665 566.108 961.205 569.258 985.182 572.839 C 1088.15 589.152 1180.45 645.628 1241.85 729.887 C 1265.5 717.123 1302.53 708.365 1328.95 706.662 C 1391.05 702.861 1452.09 724.034 1498.49 765.471 C 1537.34 799.716 1570.97 857.065 1574.19 909.202 C 1606.57 915.999 1640.28 936.074 1663.64 959.313 C 1701.53 997.366 1722.94 1048.79 1723.25 1102.49 C 1723.15 1156.48 1701.85 1208.27 1663.94 1246.7 C 1637.15 1273.75 1603.28 1292.69 1566.21 1301.34 C 1537.02 1308.24 1512.3 1306.97 1482.81 1306.94 L 1413.15 1306.91 L 1175.24 1307.16 C 1174.08 1255.18 1175.05 1199.23 1175.05 1146.94 L 1281.73 1146.94 C 1298.2 1146.95 1326.42 1146.16 1341.82 1148.17 C 1300.26 1100.19 1255.13 1040.85 1214.88 990.476 L 1133.63 888.453 C 1119.17 870.34 1102.85 851.023 1089.1 832.601 C 1084.83 827.743 1080.24 822.005 1076.3 816.883 C 1059.51 795.094 1040.8 773.9 1024.57 751.758 C 1010.8 767.351 998.691 784.089 985.558 800.308 L 875.867 937.583 L 765.281 1075.25 C 748.462 1096.19 722.478 1126.53 707.571 1147.59 C 719.913 1146.87 738.263 1147.48 751.414 1147.32 C 791.854 1146.95 832.297 1146.84 872.739 1146.98 C 871.737 1199.75 872.867 1254.89 873.028 1307.88 C 849.28 1306.34 811.904 1307.41 787.403 1307.4 L 626.273 1307.29 C 592.732 1307.25 547.583 1308.95 515.822 1302.4 C 477.68 1294.73 441.999 1277.83 411.896 1253.18 C 362.531 1212.28 331.599 1153.32 326.005 1089.46 C 320.407 1025.4 340.553 961.756 381.99 912.588 C 426.064 860.659 483.505 833.883 550.756 828.388 C 568.525 778.922 593.066 736.123 628.491 696.969 C 698.611 619.893 796.373 573.684 900.44 568.427 z"/>
<path transform="translate(0,0)" fill="white" stroke="none" stroke-width="20" d="M 1023.75 827.689 C 1029.34 832.926 1040.29 847.362 1045.32 853.748 C 1057.58 869.421 1069.96 885 1082.46 900.483 L 1241.34 1098.98 C 1204.28 1098.03 1164.06 1098.66 1126.98 1099.11 L 1127.06 1347.01 L 1024.5 1346.89 L 920.864 1347.01 C 919.94 1297.06 920.761 1245.45 920.593 1195.35 C 920.497 1166.64 919.206 1127.09 920.552 1099.11 C 882.676 1098.78 844.799 1098.72 806.922 1098.92 C 812.463 1093.06 820.225 1082.38 825.544 1075.6 L 860.017 1031.95 L 951.752 917.425 C 972.98 890.516 1001.23 852.887 1023.75 827.689 z"/>
<path transform="translate(0,0)" fill="white" stroke="" stroke-width="15"  d="M 713.137 1394.79 C 779.784 1393.63 850.093 1394.63 916.925 1394.65 L 1334.97 1395.15 C 1334.96 1405.35 1336.03 1476.89 1334.02 1480.63 L 1330.84 1480.43 L 712.956 1480.47 C 713.668 1452.56 713.035 1422.91 713.137 1394.79 z"/>
</svg>